<?xml version="1.0" standalone="no"?>
<!DOCTYPE svg PUBLIC "-//W3C//DTD SVG 1.1//EN" "http://www.w3.org/Graphics/SVG/1.1/DTD/svg11.dtd" >
<svg xmlns="http://www.w3.org/2000/svg">
<metadata>
This is a custom SVG webfont generated by Font Squirrel.
Copyright   : Copyright c 2011 by Ryoichi Tsunekawa All rights reserved
Designer    : Ryoichi Tsunekawa
Foundry     : Ryoichi Tsunekawa
</metadata>
<defs>
<font id="DharmaGothicMBold" horiz-adv-x="546" >
<font-face units-per-em="2048" ascent="1638" descent="-410" />
<missing-glyph horiz-adv-x="223" />
<glyph unicode=" "  horiz-adv-x="223" />
<glyph unicode="&#x09;" horiz-adv-x="223" />
<glyph unicode="&#xa0;" horiz-adv-x="223" />
<glyph unicode="!" horiz-adv-x="274" d="M45 0v211h182v-211h-182zM47 981v453h178v-453l-28 -694h-119z" />
<glyph unicode="&#x22;" horiz-adv-x="458" d="M29 1280v154h168v-154l-23 -301h-125zM264 1280v154h168v-154l-22 -301h-125z" />
<glyph unicode="#" d="M8 293l6 149h54l30 598h-55l10 150h53l13 244h139l-12 -244h100l14 244h138l-13 -244h54l-9 -150h-53l-31 -598h56l-8 -149h-58l-14 -293h-137l14 293h-102l-15 -293h-139l16 293h-51zM205 442h102l31 598h-102z" />
<glyph unicode="$" d="M49 250v293h156v-269q0 -45 10 -60t43 -15h23q33 0 43 15t10 60v148q0 68 -21.5 112t-97.5 121q-106 111 -136 177.5t-30 179.5v172q0 113 33 157.5t123 51.5v92h137v-92q90 -4 124 -50.5t34 -158.5v-273h-156v248q0 45 -10 60.5t-43 15.5h-23q-35 0 -44 -15.5t-9 -60.5 v-147q0 -70 20.5 -113t98.5 -123q106 -113 136 -177t30 -177v-172q0 -117 -33 -161t-125 -48v-92h-137v92q-92 4 -124 48t-32 161z" />
<glyph unicode="%" horiz-adv-x="935" d="M37 676v614q0 90 28.5 122t110.5 32h64q80 0 109.5 -33t29.5 -121v-614q0 -88 -30 -121t-109 -33h-64q-82 0 -110.5 32t-28.5 122zM158 698q0 -35 7 -47t36 -12h14q29 0 36 12.5t7 46.5v570q0 37 -7 49t-36 12h-14q-29 0 -36 -12t-7 -49v-570zM262 0l367 1434h45 l-365 -1434h-47zM559 143v615q0 90 28.5 121.5t110.5 31.5h64q80 0 109.5 -32.5t29.5 -120.5v-615q0 -88 -29.5 -120.5t-109.5 -32.5h-64q-82 0 -110.5 31.5t-28.5 121.5zM680 166q0 -35 7 -47.5t36 -12.5h14q29 0 36 12.5t7 47.5v569q0 37 -7 49.5t-36 12.5h-14 q-29 0 -36 -12.5t-7 -49.5v-569z" />
<glyph unicode="&#x26;" horiz-adv-x="591" d="M37 162v373q0 100 23.5 149t84.5 64q-61 16 -84.5 64t-23.5 151v245q0 131 42 178.5t161 47.5h147v-168h-113q-37 0 -47 -16.5t-10 -65.5v-271q0 -49 10.5 -65.5t46.5 -16.5h74v291h160v-291h78v-165h-78v-467q0 -125 27 -199h-162q-16 31 -21 111q-23 -121 -141 -121 h-41q-78 0 -105.5 38t-27.5 134zM217 231q0 -45 8 -60t41 -15h21q61 0 61 92v418h-74q-37 0 -47 -16.5t-10 -65.5v-353z" />
<glyph unicode="'" horiz-adv-x="272" d="M53 1280v154h168v-154l-22 -301h-125z" />
<glyph unicode="(" horiz-adv-x="337" d="M45 57v1196q0 117 37 159t143 42h86v-137h-55q-33 0 -42 -15.5t-9 -58.5v-1175q0 -43 9 -58.5t42 -15.5h55v-137h-86q-106 0 -143 41.5t-37 158.5z" />
<glyph unicode=")" horiz-adv-x="337" d="M27 -6h55q33 0 42 15.5t9 58.5v1175q0 43 -9 58.5t-42 15.5h-55v137h86q106 0 143 -42t37 -159v-1196q0 -117 -37 -158.5t-143 -41.5h-86v137z" />
<glyph unicode="*" horiz-adv-x="524" d="M8 1112l180 68l-180 67l70 119l145 -123l-30 191h139l-33 -191l147 123l70 -119l-182 -67l182 -68l-70 -121l-147 123l33 -190h-139l30 190l-145 -123z" />
<glyph unicode="+" d="M43 645v143h160v185h139v-185h162v-143h-162v-184h-139v184h-160z" />
<glyph unicode="," horiz-adv-x="272" d="M45 0v229h182v-229l-157 -184l-13 8l101 176h-113z" />
<glyph unicode="-" horiz-adv-x="360" d="M31 500v133h301v-133h-301z" />
<glyph unicode="." horiz-adv-x="272" d="M45 0v229h182v-229h-182z" />
<glyph unicode="/" d="M4 -41l379 1516h160l-379 -1516h-160z" />
<glyph unicode="0" d="M43 199v1036q0 123 38 166t148 43h88q111 0 149 -43t38 -166v-1036q0 -123 -38 -166t-149 -43h-88q-111 0 -148.5 43t-37.5 166zM209 221q0 -43 9 -58.5t44 -15.5h23q35 0 44 15.5t9 58.5v991q0 43 -9.5 58.5t-43.5 15.5h-23q-35 0 -44 -15.5t-9 -58.5v-991z" />
<glyph unicode="1" horiz-adv-x="274" d="M55 0v1350q31 0 59.5 27.5t28.5 56.5h80v-1434h-168z" />
<glyph unicode="2" horiz-adv-x="532" d="M33 0v219q0 152 32.5 238t137.5 239q80 117 106.5 187.5t26.5 187.5v141q0 43 -9.5 58.5t-43.5 15.5h-23q-35 0 -44 -15.5t-9 -58.5v-311h-156v334q0 123 37 166t148 43h79q111 0 149 -43t38 -166v-162q0 -150 -33 -236.5t-137 -242.5q-80 -117 -105.5 -186.5 t-25.5 -186.5v-65h301v-156h-469z" />
<glyph unicode="3" horiz-adv-x="528" d="M39 199v372h156v-350q0 -43 9 -58.5t44 -15.5h22q35 0 44.5 15.5t9.5 58.5v379q0 45 -10.5 60.5t-43.5 15.5h-153v158h153q35 0 44.5 15t9.5 58v305q0 43 -9.5 58.5t-44.5 15.5h-22q-35 0 -44 -15.5t-9 -58.5v-276h-156v299q0 123 38 166t148 43h78q111 0 148.5 -43 t37.5 -166v-285q0 -90 -19 -136t-71 -62q49 -14 69.5 -59.5t20.5 -135.5v-358q0 -123 -37.5 -166t-148.5 -43h-78q-111 0 -148.5 43t-37.5 166z" />
<glyph unicode="4" horiz-adv-x="520" d="M8 262v127l252 1045h178v-1033h78v-139h-78v-262h-166v262h-264zM147 401h125v244q0 178 13 445q-72 -389 -84 -445z" />
<glyph unicode="5" horiz-adv-x="530" d="M43 199v372h156v-350q0 -43 9 -58.5t44 -15.5h22q35 0 44.5 14.5t9.5 59.5v643q0 43 -8.5 58.5t-40.5 15.5h-21q-59 0 -59 -90v-176h-156v762h428v-156h-272v-279q27 88 131 88h39q72 0 98.5 -35.5t26.5 -125.5v-727q0 -123 -38 -166t-149 -43h-78q-111 0 -148.5 43 t-37.5 166z" />
<glyph unicode="6" horiz-adv-x="542" d="M43 199v1036q0 123 38 166t148 43h78q111 0 149 -43t38 -166v-213h-156v190q0 43 -9.5 58.5t-43.5 15.5h-23q-35 0 -44 -15.5t-9 -58.5v-346q27 88 129 88h41q72 0 98.5 -35.5t26.5 -125.5v-594q0 -123 -38 -166t-149 -43h-88q-111 0 -148.5 43t-37.5 166zM209 221 q0 -43 9 -58.5t44 -15.5h23q35 0 44 15.5t9 58.5v510q0 43 -9.5 57.5t-39.5 14.5h-21q-59 0 -59 -88v-494z" />
<glyph unicode="7" horiz-adv-x="477" d="M6 1278v156h467v-140l-221 -1294h-182l249 1278h-313z" />
<glyph unicode="8" horiz-adv-x="538" d="M39 199v366q0 92 19.5 137.5t70.5 59.5q-51 16 -70.5 60t-19.5 136v277q0 123 38 166t148 43h88q109 0 148 -44t39 -165v-277q0 -90 -20.5 -135t-73.5 -61q53 -14 73.5 -59.5t20.5 -137.5v-366q0 -121 -39 -165t-148 -44h-88q-111 0 -148.5 43t-37.5 166zM205 221 q0 -45 9 -59.5t44 -14.5h23q35 0 44 15.5t9 60.5v387q0 43 -9.5 58.5t-43.5 15.5h-23q-35 0 -44 -14.5t-9 -59.5v-389zM205 918q0 -45 9 -60.5t44 -15.5h23q35 0 44 15t9 61v294q0 43 -9.5 58.5t-43.5 15.5h-23q-35 0 -44 -14.5t-9 -59.5v-294z" />
<glyph unicode="9" horiz-adv-x="542" d="M39 662v573q0 123 38 166t148 43h88q111 0 149 -43t38 -166v-1036q0 -123 -38 -166t-149 -43h-80q-111 0 -148.5 43t-37.5 166v233h158v-211q0 -45 9 -59.5t44 -14.5h23q35 0 44 15.5t9 58.5v365q-29 -86 -131 -86h-41q-72 0 -97.5 36t-25.5 126zM205 723q0 -43 8 -57.5 t41 -14.5h20q59 0 60 88v473q0 43 -9.5 58.5t-43.5 15.5h-23q-35 0 -44 -14.5t-9 -59.5v-489z" />
<glyph unicode=":" horiz-adv-x="272" d="M45 0v229h182v-229h-182zM45 809v229h182v-229h-182z" />
<glyph unicode=";" horiz-adv-x="272" d="M45 0v229h182v-229l-157 -184l-13 8l101 176h-113zM45 809v229h182v-229h-182z" />
<glyph unicode="&#x3c;" d="M43 717l266 244h195l-271 -244l271 -244h-195z" />
<glyph unicode="=" d="M43 504v145h461v-145h-461zM43 786v144h461v-144h-461z" />
<glyph unicode="&#x3e;" d="M43 473l270 244l-270 244h195l266 -244l-266 -244h-195z" />
<glyph unicode="?" horiz-adv-x="507" d="M29 901v334q0 123 36.5 166t147.5 43h80q111 0 148.5 -43t37.5 -166v-174q0 -115 -27.5 -201t-61.5 -131t-61.5 -125t-27.5 -186v-105h-143v99q0 125 24.5 216t53 136t53 123t24.5 178v147q0 43 -9 58.5t-44 15.5h-22q-35 0 -44.5 -15.5t-9.5 -58.5v-311h-155zM139 0v238 h180v-238h-180z" />
<glyph unicode="@" horiz-adv-x="858" d="M43 365v491q0 274 99.5 392t297.5 118h11q193 0 279.5 -118t86.5 -353v-391q0 -227 -63.5 -310t-163.5 -83h-8q-86 0 -107 63q-25 -63 -104 -63h-27q-98 0 -90 122l43 748q8 115 96 115h29q70 0 84 -64l20 53h82l-53 -841q-4 -51 37 -51h6q125 0 125 329v373 q0 199 -61.5 288t-210.5 89h-11q-152 0 -221 -88t-69 -328v-504q0 -123 25.5 -206t76.5 -123.5t107.5 -56t136.5 -15.5q113 0 166 20v-90q-63 -20 -166 -20q-217 0 -335 115t-118 389zM362 233q-2 -37 25 -36h10q49 0 52 53l43 713q0 47 -37 47h-15q-35 0 -34 -37z" />
<glyph unicode="A" horiz-adv-x="565" d="M14 0l144 1434h245l146 -1434h-180l-21 205h-153l-21 -205h-160zM211 373h121l-8 94q-39 436 -54 776q-12 -301 -51 -770z" />
<glyph unicode="B" horiz-adv-x="587" d="M51 0v1434h293q119 0 161 -47.5t42 -178.5v-243q0 -98 -22.5 -147.5t-78.5 -65.5q55 -16 78 -63.5t23 -145.5v-318q0 -131 -42 -178t-161 -47h-293zM229 168h82q37 0 47.5 16.5t10.5 65.5v338q0 49 -10.5 65.5t-47.5 16.5h-82v-502zM229 838h82q37 0 47.5 15t10.5 65v266 q0 49 -10.5 65.5t-47.5 16.5h-82v-428z" />
<glyph unicode="C" horiz-adv-x="575" d="M45 215v1004q0 131 42 178t161 47h82q119 0 160.5 -47t41.5 -178v-334h-167v309q0 49 -10.5 65.5t-47.5 16.5h-24q-37 0 -47.5 -16.5t-10.5 -65.5v-954q0 -49 10.5 -65.5t47.5 -16.5h24q37 0 47.5 16t10.5 66v370h167v-395q0 -131 -41.5 -178t-160.5 -47h-82 q-119 0 -161 47t-42 178z" />
<glyph unicode="D" horiz-adv-x="595" d="M53 0v1434h295q119 0 160 -47.5t41 -178.5v-983q0 -131 -41 -178t-160 -47h-295zM231 168h82q37 0 47.5 16.5t10.5 65.5v934q0 49 -10.5 65.5t-47.5 16.5h-82v-1098z" />
<glyph unicode="E" horiz-adv-x="458" d="M53 0v1434h379v-168h-201v-435h164v-167h-164v-496h201v-168h-379z" />
<glyph unicode="F" horiz-adv-x="432" d="M53 0v1434h371v-168h-193v-455h156v-168h-156v-643h-178z" />
<glyph unicode="G" horiz-adv-x="577" d="M45 215v1004q0 131 42 178t161 47h82q119 0 160.5 -47t41.5 -178v-316h-167v291q0 49 -10.5 65.5t-47.5 16.5h-24q-37 0 -47.5 -16.5t-10.5 -65.5v-954q0 -49 10.5 -65.5t47.5 -16.5h24q37 0 47.5 16t10.5 66v387h-70v168h237v-580q0 -131 -41.5 -178t-160.5 -47h-82 q-119 0 -161 47t-42 178z" />
<glyph unicode="H" horiz-adv-x="602" d="M53 0v1434h178v-603h140v603h178v-1434h-178v664h-140v-664h-178z" />
<glyph unicode="I" horiz-adv-x="284" d="M53 0v1434h178v-1434h-178z" />
<glyph unicode="J" horiz-adv-x="555" d="M18 215v395h168v-370q0 -49 10.5 -65.5t47.5 -16.5h24q39 0 48.5 16t9.5 66v1194h178v-1219q0 -131 -41 -178t-160 -47h-84q-117 0 -159 47t-42 178z" />
<glyph unicode="K" horiz-adv-x="600" d="M53 0v1434h178v-643q10 55 31 120l156 523h172l-213 -674l219 -760h-188l-150 553q-4 14 -27 123v-676h-178z" />
<glyph unicode="L" horiz-adv-x="413" d="M53 0v1434h178v-1266h175v-168h-353z" />
<glyph unicode="M" horiz-adv-x="800" d="M51 0v1434h262l70 -680q4 -37 14 -240q2 27 7.5 112t9.5 128l67 680h269v-1434h-177v768q0 104 5 309q-4 -33 -13.5 -148.5t-15.5 -160.5l-88 -768h-139l-89 768l-30 313q4 -209 4 -313v-768h-156z" />
<glyph unicode="N" horiz-adv-x="614" d="M51 0v1434h223l103 -625q16 -94 37 -287q0 12 -3 123t-3 166v623h153v-1434h-199l-124 741q-20 119 -39 287q6 -276 6 -287v-741h-154z" />
<glyph unicode="O" horiz-adv-x="587" d="M45 215v1004q0 131 42 178t161 47h92q119 0 161 -47t42 -178v-1004q0 -131 -42 -178t-161 -47h-92q-119 0 -161 47t-42 178zM225 240q0 -49 10.5 -65.5t47.5 -16.5h24q37 0 47.5 16t10.5 66v954q0 49 -10.5 65.5t-47.5 16.5h-24q-37 0 -47.5 -16.5t-10.5 -65.5v-954z" />
<glyph unicode="P" horiz-adv-x="567" d="M53 0v1434h289q119 0 160 -47.5t41 -178.5v-442q0 -131 -41 -178t-160 -47h-111v-541h-178zM231 709h76q37 0 47.5 16t10.5 66v393q0 49 -10.5 65.5t-47.5 16.5h-76v-557z" />
<glyph unicode="Q" horiz-adv-x="587" d="M45 215v1004q0 131 42 178t161 47h92q119 0 161 -47t42 -178v-1004q0 -115 -31 -165t-115 -58v-37q0 -49 12.5 -66.5t47.5 -17.5h35v-96h-78q-98 0 -136 36.5t-38 157.5v21q-115 2 -155 49t-40 176zM225 240q0 -49 10.5 -65.5t47.5 -16.5h24q37 0 47.5 16t10.5 66v954 q0 49 -10.5 65.5t-47.5 16.5h-24q-37 0 -47.5 -16.5t-10.5 -65.5v-954z" />
<glyph unicode="R" horiz-adv-x="591" d="M51 0v1434h293q119 0 161 -47.5t42 -178.5v-274q0 -98 -22.5 -146.5t-78.5 -64.5q55 -16 78 -65.5t23 -147.5v-315q0 -123 26 -195h-186q-18 39 -18 172v373q0 51 -14.5 72.5t-55.5 21.5h-70v-639h-178zM229 807h82q37 0 47.5 16.5t10.5 65.5v295q0 49 -10.5 65.5 t-47.5 16.5h-82v-459z" />
<glyph unicode="S" horiz-adv-x="557" d="M39 215v334h168v-309q0 -49 9 -65.5t48 -16.5h19q37 0 47 16t10 66v180q0 82 -24.5 129t-106.5 135q-102 117 -136 187.5t-34 199.5v148q0 131 42 178t161 47h75q119 0 160 -47t41 -178v-281h-168v256q0 49 -9 65.5t-48 16.5h-19q-37 0 -47 -16.5t-10 -61.5v-135 q0 -82 23.5 -129t105.5 -135q104 -117 138 -187.5t34 -199.5v-197q0 -131 -41 -178t-160 -47h-75q-119 0 -161 47t-42 178z" />
<glyph unicode="T" horiz-adv-x="428" d="M6 1268v166h418v-166h-121v-1268h-178v1268h-119z" />
<glyph unicode="U" horiz-adv-x="583" d="M49 215v1219h178v-1194q0 -49 10.5 -65.5t49.5 -16.5h22q39 0 49.5 16t10.5 66v1194h166v-1219q0 -131 -41 -178t-160 -47h-82q-119 0 -161 47t-42 178z" />
<glyph unicode="V" horiz-adv-x="557" d="M16 1434h179l53 -547q27 -297 41 -592q14 295 41 592l53 547h160l-146 -1434h-235z" />
<glyph unicode="W" horiz-adv-x="862" d="M16 1434h179l51 -590q25 -272 30 -479q6 184 29 479l47 590h178l45 -590q27 -338 31 -479q6 207 31 479l49 590h162l-133 -1434h-219l-39 516q-16 233 -23 440q-6 -207 -22 -440l-39 -516h-226z" />
<glyph unicode="X" horiz-adv-x="563" d="M14 0l138 752l-132 682h181l41 -232q39 -221 49 -338q10 117 49 338l39 232h160l-129 -682l139 -752h-180l-50 285q-37 219 -49 350q-16 -170 -47 -350l-47 -285h-162z" />
<glyph unicode="Y" horiz-adv-x="540" d="M8 1434h178l47 -299q35 -219 48 -394q16 182 49 394l45 299h162l-177 -971v-463h-178v463z" />
<glyph unicode="Z" horiz-adv-x="466" d="M23 0v154l235 1114h-223v166h407v-154l-237 -1114h237v-166h-419z" />
<glyph unicode="[" horiz-adv-x="346" d="M53 -143v1597h264v-137h-104v-1323h104v-137h-264z" />
<glyph unicode="\" d="M4 1475h160l379 -1516h-160z" />
<glyph unicode="]" horiz-adv-x="346" d="M29 -6h104v1323h-104v137h264v-1597h-264v137z" />
<glyph unicode="^" d="M43 991l172 443h117l172 -443h-135l-95 254l-96 -254h-135z" />
<glyph unicode="_" horiz-adv-x="1024" d="M0 -23h1024v-110h-1024v110z" />
<glyph unicode="`" horiz-adv-x="272" d="M10 1413h146l84 -194h-103z" />
<glyph unicode="a" horiz-adv-x="526" d="M37 147v273q0 98 27.5 150.5t111.5 93.5q98 47 120.5 74.5t22.5 107.5v110q0 43 -9 58.5t-42 15.5h-18q-33 0 -42 -15.5t-9 -58.5v-196h-152v217q0 117 37 159t141 42h76q104 0 141 -42t37 -159v-830q0 -88 15 -147h-154q-10 23 -14 98q-23 -109 -133 -108h-33 q-72 0 -97.5 34.5t-25.5 122.5zM197 207q0 -41 9 -55.5t40 -14.5h16q57 0 57 86v367l-45 -25q-51 -25 -64 -51.5t-13 -87.5v-219z" />
<glyph unicode="b" horiz-adv-x="534" d="M47 0v1434h162v-342q27 86 125 86h35q72 0 98.5 -35t26.5 -123v-873q0 -88 -27 -122.5t-98 -34.5h-35q-104 0 -131 102l-17 -92h-139zM209 223q0 -86 57 -86h17q31 0 40 14.5t9 55.5v754q0 41 -9.5 55t-39.5 14h-17q-57 0 -57 -86v-721z" />
<glyph unicode="c" horiz-adv-x="518" d="M43 190v787q0 117 37 159t141 42h76q106 0 143 -42t37 -159v-281h-151v260q0 43 -9.5 58.5t-42.5 15.5h-20q-33 0 -42 -15.5t-9 -58.5v-745q0 -43 9 -58.5t42 -15.5h20q33 0 42.5 15.5t9.5 58.5v281h151v-302q0 -117 -37 -158.5t-143 -41.5h-76q-104 0 -141 41.5 t-37 158.5z" />
<glyph unicode="d" horiz-adv-x="534" d="M43 147v873q0 88 26.5 123t96.5 35h35q96 0 127 -86v342h159v-1287q0 -88 15 -147h-154q-14 27 -16 92q-23 -102 -131 -102h-35q-70 0 -96.5 34.5t-26.5 122.5zM203 207q0 -41 9 -55.5t40 -14.5h18q57 0 58 86v721q0 86 -58 86h-18q-31 0 -40 -14.5t-9 -54.5v-754z" />
<glyph unicode="e" horiz-adv-x="518" d="M43 190v787q0 117 37 159t141 42h76q106 0 143 -42t37 -159v-445h-274v-321q0 -43 9 -58.5t42 -15.5h20q33 0 42.5 15.5t9.5 58.5v205h151v-226q0 -117 -37 -158.5t-143 -41.5h-76q-104 0 -141 41.5t-37 158.5zM203 672h123v284q0 43 -9.5 58.5t-42.5 15.5h-20 q-33 0 -42 -15.5t-9 -58.5v-284z" />
<glyph unicode="f" horiz-adv-x="311" d="M8 1028v139h55v68q0 117 37 158t144 41h61v-129h-26q-33 0 -45.5 -13.5t-12.5 -56.5v-68h84v-139h-80v-1028h-162v1028h-55z" />
<glyph unicode="g" horiz-adv-x="526" d="M37 -78q0 72 55 96q-39 31 -39 111v12q0 74 49 103q-63 35 -63 182v551q0 117 37 159t143 42h57q125 0 158 -64q6 63 66 64h20v-144h-22q-27 0 -27 -41v-567q0 -117 -37 -159t-143 -42h-80q-27 0 -37 -10t-10 -37v-4q0 -39 53 -39h107q98 0 146 -32.5t48 -129.5v-34 q0 -100 -43 -137.5t-151 -37.5h-144q-143 0 -143 130v28zM154 -63v-11q0 -31 13 -41t46 -10h109q37 0 51 9.5t14 41.5v15q0 27 -15.5 36t-49.5 9h-111q-57 0 -57 -49zM193 434q0 -43 9 -58.5t42 -15.5h20q33 0 42 15.5t9 58.5v535q0 43 -9 58t-42 15h-20q-33 0 -42 -15 t-9 -58v-535z" />
<glyph unicode="h" horiz-adv-x="538" d="M47 0v1434h162v-342q27 86 125 86h35q72 0 98.5 -35t26.5 -123v-1020h-162v961q0 41 -9.5 55t-39.5 14h-17q-57 0 -57 -86v-944h-162z" />
<glyph unicode="i" horiz-adv-x="256" d="M47 0v1167h162v-1167h-162zM47 1272v162h162v-162h-162z" />
<glyph unicode="j" horiz-adv-x="256" d="M-16 -98h10q33 0 43 12t10 57v1196h162v-1192q0 -119 -36 -159.5t-142 -40.5h-47v127zM47 1272v162h162v-162h-162z" />
<glyph unicode="k" horiz-adv-x="530" d="M47 0v1434h162v-781q25 98 41 150l110 364h154l-176 -546l186 -621h-168l-114 416q-20 72 -33 145v-561h-162z" />
<glyph unicode="l" horiz-adv-x="256" d="M47 0v1434h162v-1434h-162z" />
<glyph unicode="m" horiz-adv-x="811" d="M47 0v1167h154v-108q20 119 133 119h28q104 0 119 -91q27 90 129 91h31q70 0 96.5 -35t26.5 -123v-1020h-160v961q0 41 -9 55t-40 14h-12q-55 0 -56 -86v-944h-161v961q0 41 -9.5 55t-40.5 14h-10q-57 0 -57 -84v-946h-162z" />
<glyph unicode="n" horiz-adv-x="538" d="M47 0v1167h154v-108q20 119 133 119h35q72 0 98.5 -35t26.5 -123v-1020h-162v961q0 41 -9.5 55t-39.5 14h-17q-57 0 -57 -86v-944h-162z" />
<glyph unicode="o" horiz-adv-x="528" d="M43 190v787q0 117 37 159t141 42h86q106 0 143 -42t37 -159v-787q0 -117 -36.5 -158.5t-143.5 -41.5h-86q-104 0 -141 41.5t-37 158.5zM203 211q0 -43 9 -58.5t42 -15.5h20q33 0 42.5 15.5t9.5 58.5v745q0 43 -9.5 58.5t-42.5 15.5h-20q-33 0 -42 -15.5t-9 -58.5v-745z " />
<glyph unicode="p" horiz-adv-x="534" d="M47 -225v1392h154v-108q20 119 133 119h35q72 0 98.5 -35t26.5 -123v-873q0 -88 -27 -122.5t-98 -34.5h-35q-100 0 -125 86v-301h-162zM209 223q0 -86 57 -86h17q31 0 40 14.5t9 55.5v754q0 41 -9.5 55t-39.5 14h-17q-57 0 -57 -86v-721z" />
<glyph unicode="q" horiz-adv-x="534" d="M43 147v873q0 88 26.5 123t96.5 35h35q109 0 131 -103l16 92h139v-1392h-159v301q-29 -86 -127 -86h-35q-70 0 -96.5 34.5t-26.5 122.5zM203 207q0 -41 9 -55.5t40 -14.5h18q57 0 58 86v721q0 86 -58 86h-18q-31 0 -40 -14.5t-9 -54.5v-754z" />
<glyph unicode="r" horiz-adv-x="337" d="M47 0v1167h154v-127q23 137 118 138h13v-172h-17q-57 0 -81.5 -35t-24.5 -119v-852h-162z" />
<glyph unicode="s" horiz-adv-x="507" d="M37 190v238h151v-217q0 -45 9.5 -59.5t42.5 -14.5h20q33 0 42 15.5t9 58.5v139q0 59 -22.5 93t-98.5 96q-94 76 -123.5 135t-29.5 168v135q0 117 37 159t143 42h74q106 0 143 -42t37 -159v-217h-152v196q0 43 -9 58.5t-40 15.5h-22q-33 0 -42 -15.5t-9 -58.5v-118 q0 -59 22.5 -93t97.5 -96q94 -76 124 -135t30 -168v-156q0 -117 -37 -158.5t-143 -41.5h-74q-106 0 -143 41.5t-37 158.5z" />
<glyph unicode="t" horiz-adv-x="307" d="M8 1028v139h55v209h162v-209h76v-139h-76v-829q0 -131 27 -199h-168q-20 39 -21 176v852h-55z" />
<glyph unicode="u" horiz-adv-x="538" d="M45 147v1020h162v-960q0 -41 9 -55.5t40 -14.5h16q57 0 58 86v944h162v-1020q0 -96 12 -147h-154q-10 23 -14 92q-23 -102 -131 -102h-35q-72 0 -98.5 34.5t-26.5 122.5z" />
<glyph unicode="v" horiz-adv-x="495" d="M8 1167h162l41 -368q33 -283 45 -578q12 295 45 578l41 368h145l-135 -1167h-209z" />
<glyph unicode="w" horiz-adv-x="786" d="M8 1167h164l35 -374q23 -246 35 -560q18 332 41 560l36 374h164l37 -374q31 -301 41 -560q20 373 37 560l33 374h147l-114 -1167h-215l-27 344q-23 313 -27 436q-4 -170 -24 -436l-27 -344h-221z" />
<glyph unicode="x" horiz-adv-x="495" d="M10 0l115 612l-111 555h166l13 -63q51 -270 65 -416q0 10 61 404l13 75h147l-108 -555l114 -612h-163l-21 104q-47 233 -63 433q-14 -170 -62 -433l-18 -104h-148z" />
<glyph unicode="y" horiz-adv-x="495" d="M8 1167h162l41 -368q37 -315 45 -578q8 262 45 578l41 368h145l-149 -1239q-14 -150 -168 -149h-139v125h71q45 0 45 47v49z" />
<glyph unicode="z" horiz-adv-x="440" d="M25 0v125l223 903h-205v139h375v-125l-223 -903h223v-139h-393z" />
<glyph unicode="{" horiz-adv-x="374" d="M8 588v135h27q29 0 39 13.5t10 54.5v462q0 117 37 159t143 42h84v-137h-55q-31 0 -40 -15.5t-9 -58.5v-397q0 -90 -20.5 -134t-71.5 -59q51 -14 71.5 -57t20.5 -131v-397q0 -43 9 -58.5t40 -15.5h55v-137h-84q-106 0 -143 42t-37 158v461q0 41 -10.5 55.5t-38.5 14.5h-27 z" />
<glyph unicode="|" d="M197 -225v1659h151v-1659h-151z" />
<glyph unicode="}" horiz-adv-x="374" d="M27 -6h55q31 0 40 15.5t9 58.5v397q0 88 20.5 131t71.5 57q-51 14 -71.5 58.5t-20.5 134.5v397q0 43 -9 58.5t-40 15.5h-55v137h84q106 0 143 -42t37 -159v-462q0 -41 10 -54.5t39 -13.5h27v-135h-27q-29 0 -39 -14.5t-10 -55.5v-461q0 -117 -37 -158.5t-143 -41.5h-84 v137z" />
<glyph unicode="~" d="M43 604v150q53 72 121 71q39 0 116.5 -33.5t114.5 -33.5q61 0 109 71v-151q-55 -74 -121 -74q-41 0 -118 35t-113 35q-62 0 -109 -70z" />
<glyph unicode="&#xa2;" d="M55 324v786q0 111 32 154t122 47v123h127v-123q90 -4 123 -47t33 -154v-281h-152v261q0 43 -9 58t-42 15h-23q-31 0 -40 -15t-9 -58v-746q0 -43 9.5 -58.5t39.5 -15.5h23q33 0 42 15.5t9 58.5v281h152v-301q0 -111 -33 -155t-123 -46v-123h-127v123q-90 4 -122 47 t-32 154z" />
<glyph unicode="&#xa3;" d="M35 0v141q63 61 91 122t32 155h-103v119h99q-8 41 -36 124.5t-47.5 182t-19.5 217.5v174q0 123 38 166t149 43h77q111 0 149 -43t38 -166v-401h-156v378q0 43 -9 58.5t-44 15.5h-23q-35 0 -44 -15.5t-9 -58.5v-153q0 -160 45 -331t47 -191h162v-119h-160 q-10 -164 -100 -262h281v-156h-457z" />
<glyph unicode="&#xa5;" d="M27 1434h168l43 -299q35 -254 45 -394q10 139 45 394l43 299h149l-155 -916h147v-55h-156v-113h156v-53h-156v-297h-166v297h-155v53h155v113h-155v55h145z" />
<glyph unicode="&#xa8;" horiz-adv-x="272" d="M-37 1243v143h141v-143h-141zM168 1243v143h139v-143h-139z" />
<glyph unicode="&#xa9;" horiz-adv-x="880" d="M53 379v676q0 207 77 298t282 91h57q205 0 281.5 -91t76.5 -298v-676q0 -207 -76.5 -298t-281.5 -91h-57q-205 0 -282 91t-77 298zM156 379q0 -168 55 -232.5t203 -64.5h55q147 0 201.5 64.5t54.5 232.5v676q0 168 -54.5 232.5t-201.5 64.5h-55q-147 0 -202.5 -64.5 t-55.5 -232.5v-676zM281 348v735q0 82 27.5 112t103.5 30h49q78 0 104.5 -30t26.5 -112v-249h-103v231q0 35 -8 46t-35 11h-12q-27 0 -35 -11t-8 -46v-698q0 -33 9.5 -45.5t33.5 -12.5h12q25 0 34 12.5t9 45.5v274h103v-293q0 -82 -26.5 -111.5t-104.5 -29.5h-49 q-76 0 -103.5 29.5t-27.5 111.5z" />
<glyph unicode="&#xab;" horiz-adv-x="548" d="M8 584l156 422h149l-149 -422l149 -424h-149zM242 584l149 422h150l-144 -422l144 -424h-150z" />
<glyph unicode="&#xad;" horiz-adv-x="360" d="M31 500v133h301v-133h-301z" />
<glyph unicode="&#xae;" horiz-adv-x="880" d="M53 379v676q0 207 77 298t282 91h57q205 0 281.5 -91t76.5 -298v-676q0 -207 -76.5 -298t-281.5 -91h-57q-205 0 -282 91t-77 298zM156 379q0 -168 55 -232.5t203 -64.5h55q147 0 201.5 64.5t54.5 232.5v676q0 168 -54.5 232.5t-201.5 64.5h-55q-147 0 -202.5 -64.5 t-55.5 -232.5v-676zM287 217v997h184q76 0 103.5 -28.5t27.5 -112.5v-233q0 -115 -65 -135q66 -20 65 -132v-221q0 -84 16 -135h-116q-10 25 -10 119v260q0 59 -50 59h-47v-438h-108zM395 758h54q27 0 35 11t8 44v244q0 35 -8.5 46t-34.5 11h-54v-356z" />
<glyph unicode="&#xb4;" horiz-adv-x="272" d="M35 1219l82 194h145l-127 -194h-100z" />
<glyph unicode="&#xb8;" horiz-adv-x="272" d="M2 -139h90q-2 -29 4 -40t33 -11q23 0 31 10t8 35q0 27 -15.5 38t-58.5 9v106h56v-67q70 0 97 -18.5t27 -65.5q0 -29 -7 -46.5t-39.5 -32t-94.5 -14.5q-84 0 -107.5 21t-23.5 76z" />
<glyph unicode="&#xbb;" horiz-adv-x="548" d="M8 160l144 424l-144 422h150l149 -422l-149 -424h-150zM236 160l149 424l-149 422h149l156 -422l-156 -424h-149z" />
<glyph unicode="&#xd3;" horiz-adv-x="587" d="M45 215v1004q0 131 42 178t161 47h92q119 0 161 -47t42 -178v-1004q0 -131 -42 -178t-161 -47h-92q-119 0 -161 47t-42 178zM221 1473l82 194h146l-127 -194h-101zM225 240q0 -49 10.5 -65.5t47.5 -16.5h24q37 0 47.5 16t10.5 66v954q0 49 -10.5 65.5t-47.5 16.5h-24 q-37 0 -47.5 -16.5t-10.5 -65.5v-954z" />
<glyph unicode="&#xf3;" horiz-adv-x="528" d="M43 190v787q0 117 37 159t141 42h86q106 0 143 -42t37 -159v-787q0 -117 -36.5 -158.5t-143.5 -41.5h-86q-104 0 -141 41.5t-37 158.5zM190 1219l82 194h146l-127 -194h-101zM203 211q0 -43 9 -58.5t42 -15.5h20q33 0 42.5 15.5t9.5 58.5v745q0 43 -9.5 58.5t-42.5 15.5 h-20q-33 0 -42 -15.5t-9 -58.5v-745z" />
<glyph unicode="&#x104;" horiz-adv-x="565" d="M14 0l144 1434h245l146 -1434h-62q-61 -53 -61 -113q0 -47 66 -47q31 0 57 8v-69q-47 -14 -96 -15q-80 0 -110 20.5t-30 72.5q0 76 117 143h-61l-21 205h-153l-21 -205h-160zM211 373h121l-8 94q-39 436 -54 776q-12 -301 -51 -770z" />
<glyph unicode="&#x105;" horiz-adv-x="526" d="M37 147v273q0 98 27.5 150.5t111.5 93.5q98 47 120.5 74.5t22.5 107.5v110q0 43 -9 58.5t-42 15.5h-18q-33 0 -42 -15.5t-9 -58.5v-196h-152v217q0 117 37 159t141 42h76q104 0 141 -42t37 -159v-830q0 -88 15 -147h-60q-63 -51 -63 -113q0 -47 65 -47q31 0 58 8v-69 q-47 -14 -97 -15q-80 0 -109.5 20.5t-29.5 72.5q0 47 30.5 78.5t88.5 64.5h-37q-10 23 -14 98q-23 -109 -133 -108h-33q-72 0 -97.5 34.5t-25.5 122.5zM197 207q0 -41 9 -55.5t40 -14.5h16q57 0 57 86v367l-45 -25q-51 -25 -64 -51.5t-13 -87.5v-219z" />
<glyph unicode="&#x106;" horiz-adv-x="575" d="M45 215v1004q0 131 42 178t161 47h82q119 0 160.5 -47t41.5 -178v-334h-167v309q0 49 -10.5 65.5t-47.5 16.5h-24q-37 0 -47.5 -16.5t-10.5 -65.5v-954q0 -49 10.5 -65.5t47.5 -16.5h24q37 0 47.5 16t10.5 66v370h167v-395q0 -131 -41.5 -178t-160.5 -47h-82 q-119 0 -161 47t-42 178zM219 1473l82 194h145l-127 -194h-100z" />
<glyph unicode="&#x107;" horiz-adv-x="518" d="M43 190v787q0 117 37 159t141 42h76q106 0 143 -42t37 -159v-281h-151v260q0 43 -9.5 58.5t-42.5 15.5h-20q-33 0 -42 -15.5t-9 -58.5v-745q0 -43 9 -58.5t42 -15.5h20q33 0 42.5 15.5t9.5 58.5v281h151v-302q0 -117 -37 -158.5t-143 -41.5h-76q-104 0 -141 41.5 t-37 158.5zM190 1219l82 194h146l-127 -194h-101z" />
<glyph unicode="&#x118;" horiz-adv-x="458" d="M53 0v1434h379v-168h-201v-435h164v-167h-164v-496h201v-168h-31q-92 -53 -92 -113q0 -47 66 -47q31 0 57 8v-69q-47 -14 -96 -15q-80 0 -109.5 20.5t-29.5 72.5q0 33 22.5 60.5t50 43.5t74.5 39h-291z" />
<glyph unicode="&#x119;" horiz-adv-x="518" d="M43 190v787q0 117 37 159t141 42h76q106 0 143 -42t37 -159v-445h-274v-321q0 -43 9 -58.5t42 -15.5h20q33 0 42.5 15.5t9.5 58.5v205h151v-226q0 -154 -74 -186q-49 -49 -49 -117q0 -47 66 -47q31 0 57 8v-69q-47 -14 -96 -15q-80 0 -109.5 20.5t-29.5 72.5q0 78 90 135 q-12 -2 -35 -2h-76q-104 0 -141 41.5t-37 158.5zM203 672h123v284q0 43 -9.5 58.5t-42.5 15.5h-20q-33 0 -42 -15.5t-9 -58.5v-284z" />
<glyph unicode="&#x141;" horiz-adv-x="413" d="M14 453v170l39 39v772h178v-594l86 86v-172l-86 -86v-500h175v-168h-353v492z" />
<glyph unicode="&#x142;" horiz-adv-x="274" d="M-4 461v170l59 59v744h162v-582l64 63v-170l-64 -63v-682h-162v520z" />
<glyph unicode="&#x143;" horiz-adv-x="614" d="M51 0v1434h223l103 -625q16 -94 37 -287q0 12 -3 123t-3 166v623h153v-1434h-199l-124 741q-20 119 -39 287q6 -276 6 -287v-741h-154zM233 1473l82 194h146l-127 -194h-101z" />
<glyph unicode="&#x144;" horiz-adv-x="538" d="M47 0v1167h154v-108q20 119 133 119h35q72 0 98.5 -35t26.5 -123v-1020h-162v961q0 41 -9.5 55t-39.5 14h-17q-57 0 -57 -86v-944h-162zM197 1219l82 194h145l-127 -194h-100z" />
<glyph unicode="&#x15a;" horiz-adv-x="557" d="M39 215v334h168v-309q0 -49 9 -65.5t48 -16.5h19q37 0 47 16t10 66v180q0 82 -24.5 129t-106.5 135q-102 117 -136 187.5t-34 199.5v148q0 131 42 178t161 47h75q119 0 160 -47t41 -178v-281h-168v256q0 49 -9 65.5t-48 16.5h-19q-37 0 -47 -16.5t-10 -61.5v-135 q0 -82 23.5 -129t105.5 -135q104 -117 138 -187.5t34 -199.5v-197q0 -131 -41 -178t-160 -47h-75q-119 0 -161 47t-42 178zM205 1473l82 194h145l-127 -194h-100z" />
<glyph unicode="&#x15b;" horiz-adv-x="507" d="M37 190v238h151v-217q0 -45 9.5 -59.5t42.5 -14.5h20q33 0 42 15.5t9 58.5v139q0 59 -22.5 93t-98.5 96q-94 76 -123.5 135t-29.5 168v135q0 117 37 159t143 42h74q106 0 143 -42t37 -159v-217h-152v196q0 43 -9 58.5t-40 15.5h-22q-33 0 -42 -15.5t-9 -58.5v-118 q0 -59 22.5 -93t97.5 -96q94 -76 124 -135t30 -168v-156q0 -117 -37 -158.5t-143 -41.5h-74q-106 0 -143 41.5t-37 158.5zM180 1219l82 194h146l-127 -194h-101z" />
<glyph unicode="&#x179;" horiz-adv-x="466" d="M23 0v154l235 1114h-223v166h407v-154l-237 -1114h237v-166h-419zM166 1473l82 194h145l-127 -194h-100z" />
<glyph unicode="&#x17a;" horiz-adv-x="440" d="M25 0v125l223 903h-205v139h375v-125l-223 -903h223v-139h-393zM152 1219l81 194h146l-127 -194h-100z" />
<glyph unicode="&#x17b;" horiz-adv-x="466" d="M23 0v154l235 1114h-223v166h407v-154l-237 -1114h237v-166h-419zM168 1497v143h141v-143h-141z" />
<glyph unicode="&#x17c;" horiz-adv-x="440" d="M25 0v125l223 903h-205v139h375v-125l-223 -903h223v-139h-393zM156 1243v143h141v-143h-141z" />
<glyph unicode="&#x2c6;" horiz-adv-x="272" d="M-29 1219l107 194h117l108 -194h-102l-64 98l-63 -98h-103z" />
<glyph unicode="&#x2da;" horiz-adv-x="272" d="M27 1329q0 47 31.5 77t78.5 30q45 0 77 -30t32 -77t-32 -77.5t-77 -30.5q-47 0 -78.5 29.5t-31.5 78.5zM96 1329q0 -43 41 -43q39 0 39 43q0 16 -11 28.5t-28 12.5q-18 0 -29.5 -12.5t-11.5 -28.5z" />
<glyph unicode="&#x2dc;" horiz-adv-x="272" d="M-35 1239q0 80 23.5 111.5t81.5 31.5q37 0 76.5 -21.5t56.5 -21.5q31 0 30 43h74q0 -80 -23.5 -111.5t-78.5 -31.5q-37 0 -77 20.5t-56 20.5q-31 0 -31 -41h-76z" />
<glyph unicode="&#x2000;" horiz-adv-x="833" />
<glyph unicode="&#x2001;" horiz-adv-x="1667" />
<glyph unicode="&#x2002;" horiz-adv-x="833" />
<glyph unicode="&#x2003;" horiz-adv-x="1667" />
<glyph unicode="&#x2004;" horiz-adv-x="555" />
<glyph unicode="&#x2005;" horiz-adv-x="415" />
<glyph unicode="&#x2006;" horiz-adv-x="276" />
<glyph unicode="&#x2007;" horiz-adv-x="276" />
<glyph unicode="&#x2008;" horiz-adv-x="206" />
<glyph unicode="&#x2009;" horiz-adv-x="331" />
<glyph unicode="&#x200a;" horiz-adv-x="92" />
<glyph unicode="&#x2010;" horiz-adv-x="360" d="M31 500v133h301v-133h-301z" />
<glyph unicode="&#x2011;" horiz-adv-x="360" d="M31 500v133h301v-133h-301z" />
<glyph unicode="&#x2012;" horiz-adv-x="360" d="M31 500v133h301v-133h-301z" />
<glyph unicode="&#x2013;" horiz-adv-x="1024" d="M0 500v133h1024v-133h-1024z" />
<glyph unicode="&#x2014;" horiz-adv-x="2048" d="M0 500v133h2048v-133h-2048z" />
<glyph unicode="&#x2018;" horiz-adv-x="272" d="M45 1020v229l158 185l12 -9l-100 -176h112v-229h-182z" />
<glyph unicode="&#x2019;" horiz-adv-x="272" d="M45 1204v230h182v-230l-157 -184l-13 8l101 176h-113z" />
<glyph unicode="&#x201a;" horiz-adv-x="272" d="M45 0v229h182v-229l-157 -184l-13 8l101 176h-113z" />
<glyph unicode="&#x201c;" horiz-adv-x="487" d="M33 1020v229l157 185l13 -9l-101 -176h113v-229h-182zM270 1020v229l158 185l12 -9l-100 -176h113v-229h-183z" />
<glyph unicode="&#x201d;" horiz-adv-x="487" d="M35 1204v230h182v-230l-158 -184l-12 8l100 176h-112zM270 1204v230h183v-230l-158 -184l-12 8l100 176h-113z" />
<glyph unicode="&#x201e;" horiz-adv-x="487" d="M35 0v229h182v-229l-158 -184l-12 8l100 176h-112zM270 0v229h183v-229l-158 -184l-12 8l100 176h-113z" />
<glyph unicode="&#x2026;" horiz-adv-x="722" d="M35 0v229h182v-229h-182zM270 0v229h183v-229h-183zM506 0v229h182v-229h-182z" />
<glyph unicode="&#x202f;" horiz-adv-x="331" />
<glyph unicode="&#x2039;" horiz-adv-x="319" d="M8 584l156 422h147l-143 -422l143 -424h-147z" />
<glyph unicode="&#x203a;" horiz-adv-x="319" d="M8 160l144 424l-144 422h148l155 -422l-155 -424h-148z" />
<glyph unicode="&#x205f;" horiz-adv-x="415" />
<glyph unicode="&#x20ac;" d="M10 651v54h43v100h-43v53h43v377q0 123 38 166t149 43h79q111 0 148 -43t37 -166v-277h-156v254q0 43 -9 58.5t-44 15.5h-23q-35 0 -44 -15.5t-9 -58.5v-354h285v-53h-285v-100h285v-54h-285v-430q0 -43 9.5 -58.5t43.5 -15.5h23q35 0 44 15.5t9 58.5v328h156v-350 q0 -123 -37 -166t-148 -43h-79q-111 0 -149 43t-38 166v452h-43z" />
<glyph unicode="&#x2122;" horiz-adv-x="829" d="M6 1333v101h279v-101h-82v-747h-115v747h-82zM328 586v848h161l54 -426q8 -72 12 -179q10 143 14 179l52 426h174v-848h-117v444q0 117 6 215q-16 -102 -29 -203l-57 -456h-92l-60 456q-4 35 -14 102.5t-14 102.5q6 -111 6 -217v-444h-96z" />
<glyph unicode="&#xe000;" horiz-adv-x="1165" d="M0 1165h1165v-1165h-1165v1165z" />
</font>
</defs>
</svg>
